<?xml version="1.0" encoding="UTF-8" standalone="no"?>
<svg width="230" height="250" viewBox="0 0 230 250" xmlns="http://www.w3.org/2000/svg">
  <rect width="100%" height="100%" fill="white"/>
  <g transform="translate(25, 25)">
    <!-- Grid lines -->
    <g stroke="#ccc" stroke-width="1">
      <!-- Horizontal grid lines -->
      <line x1="0" y1="0" x2="180" y2="0" />
      <line x1="0" y1="30" x2="180" y2="30" />
      <line x1="0" y1="60" x2="180" y2="60" />
      <line x1="0" y1="90" x2="180" y2="90" />
      <line x1="0" y1="120" x2="180" y2="120" />
      <line x1="0" y1="150" x2="180" y2="150" />
      <line x1="0" y1="180" x2="180" y2="180" />
      <!-- Vertical grid lines -->
      <line x1="0" y1="0" x2="0" y2="180" />
      <line x1="30" y1="0" x2="30" y2="180" />
      <line x1="60" y1="0" x2="60" y2="180" />
      <line x1="90" y1="0" x2="90" y2="180" />
      <line x1="120" y1="0" x2="120" y2="180" />
      <line x1="150" y1="0" x2="150" y2="180" />
      <line x1="180" y1="0" x2="180" y2="180" />
    </g>
    <!-- Cells -->
    <rect x="90" y="0" width="30" height="30" fill="#333" />
    <rect x="30" y="30" width="30" height="30" fill="#333" />
    <rect x="90" y="30" width="30" height="30" fill="#333" />
    <rect x="120" y="90" width="30" height="30" fill="#333" />
    <rect x="30" y="120" width="30" height="30" fill="#333" />
    <rect x="120" y="120" width="30" height="30" fill="#333" />
  </g>
  <text x="115.0" y="240" text-anchor="middle" font-family="Arial" font-size="12">Level 10 (6x6)</text>
</svg>