<?xml version="1.0" encoding="UTF-8" standalone="no"?>
<svg width="150" height="150" viewBox="0 0 150 150" xmlns="http://www.w3.org/2000/svg">
  <rect width="100%" height="100%" fill="white"/>
  <g transform="translate(25, 25)">
    <!-- Grid lines -->
    <g stroke="#ccc" stroke-width="1">
      <!-- Horizontal grid lines -->
      <line x1="0" y1="0" x2="100" y2="0" />
      <line x1="0" y1="33.33" x2="100" y2="33.33" />
      <line x1="0" y1="66.66" x2="100" y2="66.66" />
      <line x1="0" y1="100" x2="100" y2="100" />
      
      <!-- Vertical grid lines -->
      <line x1="0" y1="0" x2="0" y2="100" />
      <line x1="33.33" y1="0" x2="33.33" y2="100" />
      <line x1="66.66" y1="0" x2="66.66" y2="100" />
      <line x1="100" y1="0" x2="100" y2="100" />
    </g>
    
    <!-- Walls -->
    <rect x="0" y="0" width="33.33" height="33.33" fill="#333" />
    <rect x="66.66" y="66.66" width="33.33" height="33.33" fill="#333" />
    
    <!-- Path cells with light background -->
    <rect x="33.33" y="0" width="33.33" height="33.33" fill="#e6f7ff" />
    <rect x="66.66" y="0" width="33.33" height="33.33" fill="#e6f7ff" />
    <rect x="66.66" y="33.33" width="33.33" height="33.33" fill="#e6f7ff" />
    <rect x="33.33" y="33.33" width="33.33" height="33.33" fill="#e6f7ff" />
    <rect x="0" y="33.33" width="33.33" height="33.33" fill="#e6f7ff" />
    <rect x="0" y="66.66" width="33.33" height="33.33" fill="#e6f7ff" />
    <rect x="33.33" y="66.66" width="33.33" height="33.33" fill="#e6f7ff" />
    
    <!-- Path arrows -->
    <g stroke="#0066cc" stroke-width="3" fill="none">
      <!-- Path: starting at (1,0) = (33.33 + 16.67, 0 + 16.67) -->
      <!-- R: (1,0) to (2,0) -->
      <line x1="50" y1="16.67" x2="83.33" y2="16.67" stroke-linecap="round" />
      <polygon points="78.33,11.67 83.33,16.67 78.33,21.67" fill="#0066cc" />
      
      <!-- D: (2,0) to (2,1) -->
      <line x1="83.33" y1="16.67" x2="83.33" y2="50" stroke-linecap="round" />
      <polygon points="78.33,45 83.33,50 88.33,45" fill="#0066cc" />
      
      <!-- L: (2,1) to (0,1) -->
      <line x1="83.33" y1="50" x2="16.67" y2="50" stroke-linecap="round" />
      <polygon points="21.67,45 16.67,50 21.67,55" fill="#0066cc" />
      
      <!-- D: (0,1) to (0,2) -->
      <line x1="16.67" y1="50" x2="16.67" y2="83.33" stroke-linecap="round" />
      <polygon points="11.67,78.33 16.67,83.33 21.67,78.33" fill="#0066cc" />
      
      <!-- R: (0,2) to (1,2) -->
      <line x1="16.67" y1="83.33" x2="50" y2="83.33" stroke-linecap="round" />
      <polygon points="45,78.33 50,83.33 45,88.33" fill="#0066cc" />
    </g>
    
    <!-- Start point -->
    <circle cx="50" cy="16.67" r="6" fill="#4CAF50" stroke="#388E3C" stroke-width="2" />
    <text x="50" y="16.67" text-anchor="middle" dominant-baseline="central" font-family="Arial" font-size="10" font-weight="bold" fill="white">S</text>
    
    <!-- End point -->
    <circle cx="50" cy="83.33" r="6" fill="#F44336" stroke="#D32F2F" stroke-width="2" />
    <text x="50" y="83.33" text-anchor="middle" dominant-baseline="central" font-family="Arial" font-size="10" font-weight="bold" fill="white">E</text>
  </g>
  <text x="75" y="145" text-anchor="middle" font-family="Arial" font-size="12">Level 1 (3x3) Solution: x=1&amp;y=0&amp;path=RDLDR</text>
</svg>