<?xml version="1.0" encoding="UTF-8" standalone="no"?>
<svg width="400" height="380" viewBox="0 0 400 380" xmlns="http://www.w3.org/2000/svg">
  <rect width="100%" height="100%" fill="white"/>
  <g transform="translate(10, 10)">
    <!-- Grid lines -->
    <g stroke="#eee" stroke-width="0.5">
      <!-- Horizontal grid lines -->
      <!-- Drawing only a few reference lines to avoid too much clutter -->
      <line x1="0" y1="0" x2="380" y2="0" />
      <line x1="0" y1="90" x2="380" y2="90" />
      <line x1="0" y1="180" x2="380" y2="180" />
      <line x1="0" y1="270" x2="380" y2="270" />
      <line x1="0" y1="360" x2="380" y2="360" />
      
      <!-- Vertical grid lines -->
      <line x1="0" y1="0" x2="0" y2="360" />
      <line x1="95" y1="0" x2="95" y2="360" />
      <line x1="190" y1="0" x2="190" y2="360" />
      <line x1="285" y1="0" x2="285" y2="360" />
      <line x1="380" y1="0" x2="380" y2="360" />
    </g>
    
    <!-- Level 50 is too complex to draw all walls individually, so creating a simplified representation -->
    <!-- Each cell is approximately 19px square (380รท20 = 19) -->
    <g fill="#333">
      <!-- Row 1 -->
      <rect x="76" y="0" width="19" height="19" />
      <rect x="190" y="0" width="190" height="19" />
      
      <!-- Row 2 -->
      <rect x="19" y="19" width="38" height="19" />
      <rect x="133" y="19" width="19" height="19" />
      
      <!-- Row 4 -->
      <rect x="38" y="57" width="38" height="19" />
      <rect x="133" y="57" width="19" height="19" />
      <rect x="228" y="57" width="19" height="19" />
      <rect x="304" y="57" width="19" height="19" />
      
      <!-- Row 5 -->
      <rect x="76" y="76" width="19" height="19" />
      <rect x="114" y="76" width="57" height="19" />
      <rect x="209" y="76" width="19" height="19" />
      <rect x="247" y="76" width="38" height="19" />
      <rect x="323" y="76" width="57" height="19" />
      
      <!-- Row 7 -->
      <rect x="114" y="114" width="38" height="19" />
      <rect x="171" y="114" width="38" height="19" />
      <rect x="342" y="114" width="19" height="19" />
      
      <!-- Row 8 -->
      <rect x="76" y="133" width="19" height="19" />
      <rect x="171" y="133" width="19" height="19" />
      <rect x="266" y="133" width="38" height="19" />
      
      <!-- Row 9 -->
      <rect x="76" y="152" width="19" height="19" />
      <rect x="171" y="152" width="57" height="19" />
      <rect x="247" y="152" width="19" height="19" />
      <rect x="304" y="152" width="19" height="19" />
      <rect x="342" y="152" width="19" height="19" />
      
      <!-- Row 10 -->
      <rect x="0" y="171" width="38" height="19" />
      <rect x="114" y="171" width="38" height="19" />
      <rect x="171" y="171" width="38" height="19" />
      <rect x="247" y="171" width="19" height="19" />
      <rect x="304" y="171" width="19" height="19" />
      
      <!-- Row 11 -->
      <rect x="0" y="190" width="19" height="19" />
      <rect x="76" y="190" width="19" height="19" />
      <rect x="152" y="190" width="19" height="19" />
      <rect x="209" y="190" width="19" height="19" />
      <rect x="285" y="190" width="38" height="19" />
      <rect x="342" y="190" width="19" height="19" />
      
      <!-- Row 12 -->
      <rect x="114" y="209" width="19" height="19" />
      <rect x="171" y="209" width="19" height="19" />
      <rect x="209" y="209" width="19" height="19" />
      <rect x="266" y="209" width="19" height="19" />
      <rect x="304" y="209" width="19" height="19" />
      
      <!-- Row 14 -->
      <rect x="0" y="247" width="19" height="19" />
      <rect x="57" y="247" width="57" height="19" />
      <rect x="152" y="247" width="38" height="19" />
      <rect x="266" y="247" width="19" height="19" />
      <rect x="323" y="247" width="19" height="19" />
      
      <!-- Row 16 -->
      <rect x="114" y="285" width="19" height="19" />
      <rect x="209" y="285" width="19" height="19" />
      <rect x="304" y="285" width="19" height="19" />
      
      <!-- Row 17 -->
      <rect x="247" y="304" width="19" height="19" />
      <rect x="323" y="304" width="19" height="19" />
      
      <!-- Row 18 -->
      <rect x="190" y="323" width="57" height="19" />
      <rect x="285" y="323" width="19" height="19" />
      <rect x="323" y="323" width="38" height="19" />
      
      <!-- Row 19 -->
      <rect x="0" y="342" width="19" height="19" />
    </g>
  </g>
  <text x="200" y="375" text-anchor="middle" font-family="Arial" font-size="12">Level 50 (20x19)</text>
</svg>