<?xml version="1.0" encoding="UTF-8" standalone="no"?>
<svg width="650" height="640" viewBox="0 0 650 640" xmlns="http://www.w3.org/2000/svg">
  <rect width="100%" height="100%" fill="white"/>
  <g transform="translate(25, 25)">
    <!-- Grid lines -->
    <g stroke="#ccc" stroke-width="1">
      <!-- Horizontal grid lines -->
      <line x1="0" y1="0" x2="600" y2="0" />
      <line x1="0" y1="30" x2="600" y2="30" />
      <line x1="0" y1="60" x2="600" y2="60" />
      <line x1="0" y1="90" x2="600" y2="90" />
      <line x1="0" y1="120" x2="600" y2="120" />
      <line x1="0" y1="150" x2="600" y2="150" />
      <line x1="0" y1="180" x2="600" y2="180" />
      <line x1="0" y1="210" x2="600" y2="210" />
      <line x1="0" y1="240" x2="600" y2="240" />
      <line x1="0" y1="270" x2="600" y2="270" />
      <line x1="0" y1="300" x2="600" y2="300" />
      <line x1="0" y1="330" x2="600" y2="330" />
      <line x1="0" y1="360" x2="600" y2="360" />
      <line x1="0" y1="390" x2="600" y2="390" />
      <line x1="0" y1="420" x2="600" y2="420" />
      <line x1="0" y1="450" x2="600" y2="450" />
      <line x1="0" y1="480" x2="600" y2="480" />
      <line x1="0" y1="510" x2="600" y2="510" />
      <line x1="0" y1="540" x2="600" y2="540" />
      <line x1="0" y1="570" x2="600" y2="570" />
      <!-- Vertical grid lines -->
      <line x1="0" y1="0" x2="0" y2="570" />
      <line x1="30" y1="0" x2="30" y2="570" />
      <line x1="60" y1="0" x2="60" y2="570" />
      <line x1="90" y1="0" x2="90" y2="570" />
      <line x1="120" y1="0" x2="120" y2="570" />
      <line x1="150" y1="0" x2="150" y2="570" />
      <line x1="180" y1="0" x2="180" y2="570" />
      <line x1="210" y1="0" x2="210" y2="570" />
      <line x1="240" y1="0" x2="240" y2="570" />
      <line x1="270" y1="0" x2="270" y2="570" />
      <line x1="300" y1="0" x2="300" y2="570" />
      <line x1="330" y1="0" x2="330" y2="570" />
      <line x1="360" y1="0" x2="360" y2="570" />
      <line x1="390" y1="0" x2="390" y2="570" />
      <line x1="420" y1="0" x2="420" y2="570" />
      <line x1="450" y1="0" x2="450" y2="570" />
      <line x1="480" y1="0" x2="480" y2="570" />
      <line x1="510" y1="0" x2="510" y2="570" />
      <line x1="540" y1="0" x2="540" y2="570" />
      <line x1="570" y1="0" x2="570" y2="570" />
      <line x1="600" y1="0" x2="600" y2="570" />
    </g>
    <!-- Cells -->
    <rect x="120" y="0" width="30" height="30" fill="#333" />
    <rect x="300" y="0" width="30" height="30" fill="#333" />
    <rect x="330" y="0" width="30" height="30" fill="#333" />
    <rect x="360" y="0" width="30" height="30" fill="#333" />
    <rect x="390" y="0" width="30" height="30" fill="#333" />
    <rect x="420" y="0" width="30" height="30" fill="#333" />
    <rect x="450" y="0" width="30" height="30" fill="#333" />
    <rect x="480" y="0" width="30" height="30" fill="#333" />
    <rect x="510" y="0" width="30" height="30" fill="#333" />
    <rect x="540" y="0" width="30" height="30" fill="#333" />
    <rect x="570" y="0" width="30" height="30" fill="#333" />
    <rect x="30" y="30" width="30" height="30" fill="#333" />
    <rect x="60" y="30" width="30" height="30" fill="#333" />
    <rect x="180" y="30" width="30" height="30" fill="#333" />
    <rect x="330" y="60" width="30" height="30" fill="#333" />
    <rect x="60" y="90" width="30" height="30" fill="#333" />
    <rect x="90" y="90" width="30" height="30" fill="#333" />
    <rect x="210" y="90" width="30" height="30" fill="#333" />
    <rect x="330" y="90" width="30" height="30" fill="#333" />
    <rect x="510" y="90" width="30" height="30" fill="#333" />
    <rect x="150" y="120" width="30" height="30" fill="#333" />
    <rect x="210" y="120" width="30" height="30" fill="#333" />
    <rect x="240" y="120" width="30" height="30" fill="#333" />
    <rect x="270" y="120" width="30" height="30" fill="#333" />
    <rect x="330" y="120" width="30" height="30" fill="#333" />
    <rect x="420" y="120" width="30" height="30" fill="#333" />
    <rect x="450" y="120" width="30" height="30" fill="#333" />
    <rect x="510" y="120" width="30" height="30" fill="#333" />
    <rect x="540" y="120" width="30" height="30" fill="#333" />
    <rect x="570" y="120" width="30" height="30" fill="#333" />
    <rect x="270" y="150" width="30" height="30" fill="#333" />
    <rect x="90" y="180" width="30" height="30" fill="#333" />
    <rect x="120" y="180" width="30" height="30" fill="#333" />
    <rect x="180" y="180" width="30" height="30" fill="#333" />
    <rect x="210" y="180" width="30" height="30" fill="#333" />
    <rect x="270" y="180" width="30" height="30" fill="#333" />
    <rect x="300" y="180" width="30" height="30" fill="#333" />
    <rect x="480" y="180" width="30" height="30" fill="#333" />
    <rect x="30" y="210" width="30" height="30" fill="#333" />
    <rect x="120" y="210" width="30" height="30" fill="#333" />
    <rect x="360" y="210" width="30" height="30" fill="#333" />
    <rect x="390" y="210" width="30" height="30" fill="#333" />
    <rect x="60" y="240" width="30" height="30" fill="#333" />
    <rect x="240" y="240" width="30" height="30" fill="#333" />
    <rect x="450" y="240" width="30" height="30" fill="#333" />
    <rect x="480" y="240" width="30" height="30" fill="#333" />
    <rect x="510" y="240" width="30" height="30" fill="#333" />
    <rect x="0" y="270" width="30" height="30" fill="#333" />
    <rect x="60" y="270" width="30" height="30" fill="#333" />
    <rect x="150" y="270" width="30" height="30" fill="#333" />
    <rect x="240" y="270" width="30" height="30" fill="#333" />
    <rect x="300" y="270" width="30" height="30" fill="#333" />
    <rect x="330" y="270" width="30" height="30" fill="#333" />
    <rect x="360" y="270" width="30" height="30" fill="#333" />
    <rect x="570" y="270" width="30" height="30" fill="#333" />
    <rect x="0" y="300" width="30" height="30" fill="#333" />
    <rect x="60" y="300" width="30" height="30" fill="#333" />
    <rect x="150" y="300" width="30" height="30" fill="#333" />
    <rect x="240" y="300" width="30" height="30" fill="#333" />
    <rect x="420" y="300" width="30" height="30" fill="#333" />
    <rect x="510" y="300" width="30" height="30" fill="#333" />
    <rect x="570" y="300" width="30" height="30" fill="#333" />
    <rect x="0" y="330" width="30" height="30" fill="#333" />
    <rect x="60" y="330" width="30" height="30" fill="#333" />
    <rect x="270" y="330" width="30" height="30" fill="#333" />
    <rect x="390" y="330" width="30" height="30" fill="#333" />
    <rect x="510" y="330" width="30" height="30" fill="#333" />
    <rect x="570" y="330" width="30" height="30" fill="#333" />
    <rect x="0" y="360" width="30" height="30" fill="#333" />
    <rect x="330" y="360" width="30" height="30" fill="#333" />
    <rect x="450" y="360" width="30" height="30" fill="#333" />
    <rect x="90" y="390" width="30" height="30" fill="#333" />
    <rect x="180" y="390" width="30" height="30" fill="#333" />
    <rect x="210" y="390" width="30" height="30" fill="#333" />
    <rect x="240" y="390" width="30" height="30" fill="#333" />
    <rect x="330" y="390" width="30" height="30" fill="#333" />
    <rect x="360" y="390" width="30" height="30" fill="#333" />
    <rect x="540" y="390" width="30" height="30" fill="#333" />
    <rect x="30" y="420" width="30" height="30" fill="#333" />
    <rect x="240" y="420" width="30" height="30" fill="#333" />
    <rect x="480" y="420" width="30" height="30" fill="#333" />
    <rect x="30" y="450" width="30" height="30" fill="#333" />
    <rect x="240" y="450" width="30" height="30" fill="#333" />
    <rect x="480" y="450" width="30" height="30" fill="#333" />
    <rect x="570" y="450" width="30" height="30" fill="#333" />
    <rect x="360" y="480" width="30" height="30" fill="#333" />
    <rect x="390" y="480" width="30" height="30" fill="#333" />
    <rect x="420" y="480" width="30" height="30" fill="#333" />
    <rect x="510" y="480" width="30" height="30" fill="#333" />
    <rect x="0" y="510" width="30" height="30" fill="#333" />
    <rect x="30" y="510" width="30" height="30" fill="#333" />
    <rect x="60" y="510" width="30" height="30" fill="#333" />
    <rect x="510" y="510" width="30" height="30" fill="#333" />
    <rect x="540" y="510" width="30" height="30" fill="#333" />
    <rect x="0" y="540" width="30" height="30" fill="#333" />
    <rect x="30" y="540" width="30" height="30" fill="#333" />
    <rect x="60" y="540" width="30" height="30" fill="#333" />
    <rect x="90" y="540" width="30" height="30" fill="#333" />
    <rect x="120" y="540" width="30" height="30" fill="#333" />
  </g>
  <text x="325.0" y="630" text-anchor="middle" font-family="Arial" font-size="12">Level 50 (20x19)</text>
</svg>