<?xml version="1.0" encoding="UTF-8" standalone="no"?>
<svg width="180" height="180" viewBox="0 0 180 180" xmlns="http://www.w3.org/2000/svg">
  <rect width="100%" height="100%" fill="white"/>
  <g transform="translate(15, 15)">
    <!-- Grid lines -->
    <g stroke="#ccc" stroke-width="1">
      <!-- Horizontal grid lines -->
      <line x1="0" y1="0" x2="150" y2="0" />
      <line x1="0" y1="25" x2="150" y2="25" />
      <line x1="0" y1="50" x2="150" y2="50" />
      <line x1="0" y1="75" x2="150" y2="75" />
      <line x1="0" y1="100" x2="150" y2="100" />
      <line x1="0" y1="125" x2="150" y2="125" />
      <line x1="0" y1="150" x2="150" y2="150" />
      
      <!-- Vertical grid lines -->
      <line x1="0" y1="0" x2="0" y2="150" />
      <line x1="25" y1="0" x2="25" y2="150" />
      <line x1="50" y1="0" x2="50" y2="150" />
      <line x1="75" y1="0" x2="75" y2="150" />
      <line x1="100" y1="0" x2="100" y2="150" />
      <line x1="125" y1="0" x2="125" y2="150" />
      <line x1="150" y1="0" x2="150" y2="150" />
    </g>
    
    <!-- Walls -->
    <rect x="75" y="0" width="25" height="25" fill="#333" />
    <rect x="0" y="25" width="25" height="25" fill="#333" />
    <rect x="50" y="25" width="25" height="25" fill="#333" />
    <rect x="75" y="75" width="25" height="25" fill="#333" />
    <rect x="0" y="100" width="25" height="25" fill="#333" />
    <rect x="75" y="100" width="25" height="25" fill="#333" />
    
    <!-- Empty cells are transparent -->
  </g>
  <text x="90" y="175" text-anchor="middle" font-family="Arial" font-size="12">Level 10 (6x6)</text>
</svg>